<?xml version="1.0" encoding="UTF-8" standalone="no"?>
<!-- Created with Inkscape (http://www.inkscape.org/) -->

<svg
   version="1.1"
   id="svg1"
   width="454.30692"
   height="1026.1426"
   viewBox="0 0 454.30692 1026.1426"
   sodipodi:docname="Beer6d.svg"
   inkscape:version="1.3.2 (091e20ef0f, 2023-11-25)"
   xmlns:inkscape="http://www.inkscape.org/namespaces/inkscape"
   xmlns:sodipodi="http://sodipodi.sourceforge.net/DTD/sodipodi-0.dtd"
   xmlns="http://www.w3.org/2000/svg"
   xmlns:svg="http://www.w3.org/2000/svg">
  <defs
     id="defs1" />
  <sodipodi:namedview
     id="namedview1"
     pagecolor="#ffffff"
     bordercolor="#000000"
     borderopacity="0.25"
     inkscape:showpageshadow="2"
     inkscape:pageopacity="0.0"
     inkscape:pagecheckerboard="0"
     inkscape:deskcolor="#d1d1d1"
     showgrid="false"
     inkscape:zoom="0.75374532"
     inkscape:cx="226.86708"
     inkscape:cy="524.71304"
     inkscape:window-width="1920"
     inkscape:window-height="1011"
     inkscape:window-x="0"
     inkscape:window-y="0"
     inkscape:window-maximized="1"
     inkscape:current-layer="layer1" />
  <g
     inkscape:groupmode="layer"
     id="layer1"
     inkscape:label="Layer 1"
     transform="translate(-22.784503,-30.666579)">
    <path
       style="fill:#000000"
       d="m 206,1055.8999 c -45.83261,-6.1299 -89.23377,-22.6509 -108.355863,-41.2466 -9.017798,-8.7695 -12.994712,-15.98381 -15.105466,-27.40193 -2.524122,-13.65423 -1.040213,-19.26956 10.196412,-38.5847 3.750354,-6.44666 11.866897,-25.253 15.249357,-35.33334 C 118.52297,881.92658 122.19722,846.42779 119.92186,798 119.12938,781.13333 117.96545,766.13333 117.33536,764.66667 116.70526,763.2 114.60824,746.7 112.67532,728 c -4.01792,-38.87131 -9.381,-82.56959 -11.45476,-93.33333 -3.446721,-17.88992 -10.84881,-51.91834 -12.616554,-58 C 87.538225,573 84.261134,561 81.321581,550 78.382029,539 73.93015,523.7 71.428518,516 c -2.501632,-7.7 -6.144568,-20 -8.095413,-27.33333 -1.950845,-7.33334 -4.38664,-16.03334 -5.412877,-19.33334 -1.026238,-3.3 -2.760077,-9.9 -3.852976,-14.66666 C 52.974353,449.9 50.053463,438.5 47.576386,429.33333 c -2.477077,-9.16666 -5.562316,-22.66666 -6.856087,-30 C 39.426528,392 37.882229,384.8 37.288522,383.33333 35.07946,377.87616 27.934187,326.32827 25.345049,297.16996 20.142513,238.5801 22.700026,194.59128 34.560443,138.66667 42.430699,101.55659 43.355582,97.968804 46.24677,93.333333 52.904349,82.659172 73.956564,67.644156 93.333333,59.749908 105.94952,54.609975 113.24609,51.439789 117.64857,49.185511 118.92196,48.53348 120.89096,48 122.02413,48 c 1.13317,0 8.19131,-1.821751 15.68475,-4.048335 61.97173,-18.414124 162.51766,-17.596035 232.95779,1.895454 42.19474,11.675709 75.10382,31.696047 84.98067,51.698248 1.57192,3.183383 3.17006,7.587963 3.55142,9.787963 0.38136,2.2 2.48124,12.4 4.66641,22.66667 4.97942,23.39503 10.21285,57.45633 12.26026,79.79471 1.93155,21.07439 0.81185,76.39855 -1.98758,98.20529 -3.01567,23.4912 -8.69776,61.81847 -10.32608,69.65223 -0.80191,3.85794 -1.92848,9.71444 -2.50349,13.01444 -3.26557,18.74106 -4.44239,23.94602 -9.22733,40.81152 -2.89017,10.187 -8.91972,29.62181 -13.399,43.18848 -4.47927,13.56666 -9.3114,29.50616 -10.73805,35.4211 -1.42665,5.91493 -3.73928,14.31493 -5.13916,18.66666 -1.39988,4.35173 -2.97291,10.01224 -3.49562,12.5789 -0.52271,2.56667 -1.41326,5.26667 -1.979,6 -0.56574,0.73334 -1.43359,4.03334 -1.92856,7.33334 -0.49496,3.3 -2.32703,10.8 -4.07126,16.66666 -1.74423,5.86667 -3.54824,13.66667 -4.0089,17.33334 -0.46067,3.66666 -1.36019,7.86666 -1.99894,9.33333 -0.63874,1.46667 -2.68573,12.56667 -4.54885,24.66667 -1.86313,12.1 -4.55762,29.2 -5.98776,38 -4.30942,26.51677 -5.27005,34.48166 -8.68383,72 -9.31706,102.39686 -8.12699,136.27155 6.08943,173.33333 2.25038,5.86667 5.26674,13.96667 6.70301,18 2.73459,7.67924 9.93581,22.65509 17.95194,37.33333 4.31382,7.89899 4.69001,9.44218 4.24692,17.4218 -0.73436,13.22524 -6.51647,23.88847 -19.5931,36.13327 -21.63734,20.2609 -45.55596,30.3477 -91.50022,38.5868 -13.50183,2.4212 -22.14133,2.932 -55.33333,3.2711 -21.63334,0.221 -43.53334,-0.1599 -48.66667,-0.8464 z"
       id="path1" />
    <path
       style="fill:#c8c4b7"
       d="m 282,1034.6276 c 35.60487,-3.3261 68.08144,-12.3835 85.91561,-23.9609 3.95375,-2.5667 8.14018,-5.2667 9.30318,-6 6.42195,-4.0494 17.53755,-13.01061 19.35225,-15.60146 1.15259,-1.64556 2.09563,-5.54628 2.09563,-8.66827 0,-6.18831 -3.49459,-16.39697 -5.61295,-16.39697 -0.72788,0 -5.45694,3.82702 -10.50904,8.50448 -5.05209,4.67747 -12.34141,10.05374 -16.19849,11.94728 -3.85707,1.89353 -8.51286,4.32169 -10.34619,5.39591 -4.33768,2.54161 -27.25288,9.51473 -39.99538,12.17063 -36.98625,7.709 -94.15654,8.0312 -129.7308,0.7311 -20.19293,-4.14374 -30.17216,-7.57895 -45.60715,-15.69962 -15.45334,-8.13033 -26.45192,-17.45676 -28.91332,-24.51754 -1.69717,-4.8685 -2.69345,-4.84348 -6.9151,0.17368 -5.559596,6.6072 -6.256397,18.8419 -1.58143,27.76738 9.59135,18.3119 50.08496,36.9097 92.0164,42.2611 8.76694,1.1188 16.21694,2.3113 16.55556,2.6499 1.18694,1.187 55.65267,0.5996 70.17122,-0.7567 z"
       id="path2" />
    <path
       style="fill:#ffcc00"
       d="m 310.00409,970.21592 c 33.66636,-5.94761 55.51571,-14.89102 69.79723,-28.56949 2.00481,-1.92015 1.33201,-6.25526 -1.59103,-10.25168 -1.85433,-2.53528 -2.03571,-2.49095 -6.75268,1.65061 -2.66594,2.34073 -10.38452,6.9358 -17.15239,10.21127 C 332.53386,953.79341 310.07794,958.35501 274,959.56952 224.05569,961.25081 174.71001,952.77402 143.71087,937.18796 138.03578,934.33458 132.86439,932 132.21889,932 c -0.6455,0 -2.72688,2.99382 -4.6253,6.65294 l -3.45166,6.65294 4.32733,3.30062 c 9.29016,7.08594 25.00873,12.86637 47.68252,17.535 12.18347,2.50863 26.58347,5.10658 32,5.77321 16.12089,1.98407 87.77004,0.78904 101.85231,-1.69879 z"
       id="path3" />
    <path
       style="fill:#ffcc00"
       d="m 276,944.75521 c 37.7231,-5.52897 36.56791,-5.27374 56.66667,-12.52026 19.71596,-7.1085 24.5622,-9.24856 29.66666,-13.10057 5.3611,-4.04568 5.50134,-7.37553 1.14632,-27.21706 -3.06528,-13.9654 -3.08156,-14.52057 -1.9553,-66.66666 C 363.18881,748.18533 367.87483,699.34347 380.641,626 c 1.77079,-10.17341 6.59706,-33.22028 12.70427,-60.66667 C 397.90487,544.84205 406.08035,513.77177 411.0626,498 425.46783,452.39887 433.05788,423.67395 439.77583,389.33333 442.71676,374.3 445.50614,360.2 445.97447,358 c 0.46833,-2.2 1.12741,-6.7 1.46464,-10 0.33722,-3.3 1.75902,-12.6 3.15956,-20.66667 3.7241,-21.44972 5.23649,-35.82733 6.669,-63.39952 1.20938,-23.27761 0.60981,-49.28527 -1.13543,-49.25184 -0.4394,0.008 -10.92874,5.40842 -23.30965,12 -12.38091,6.59158 -23.89185,11.9847 -25.57987,11.9847 -1.68802,0 -4.55524,0.56502 -6.37161,1.2556 -1.81637,0.69058 -19.40543,4.84318 -39.0868,9.22799 -32.34361,7.20583 -38.1466,8.11072 -60.35287,9.41106 -44.52787,2.60745 -82.3024,1.35479 -120.76477,-4.00475 -33.9128,-4.72557 -75.70951,-14.20583 -94.000003,-21.32092 -5.5,-2.13952 -10.9,-3.90432 -12,-3.92177 -1.1,-0.0175 -7.526854,-2.96575 -14.281897,-6.55177 -10.392961,-5.51728 -12.383456,-6.1798 -12.942239,-4.30775 -2.041575,6.83976 -3.731206,39.23178 -3.064815,58.75579 1.002681,29.37669 7.988491,80.78613 14.351831,105.61691 1.432083,5.58821 2.603786,11.66931 2.603786,13.51355 0,1.84424 0.90299,6.27207 2.006644,9.83961 2.192467,7.08711 13.75274,50.01589 18.622217,69.15311 1.679373,6.6 5.786153,20.7 9.126178,31.33334 14.660658,46.6738 22.639978,79.66161 31.606568,130.66666 6.19037,35.21301 7.78445,46.34584 10.59583,74 7.29822,71.78891 8.28354,130.66769 3.04571,182 -0.41155,4.03334 -0.99739,12.55206 -1.30188,18.9305 l -0.55361,11.59716 6.77853,3.43494 c 19.33735,9.79898 46.60455,16.87359 76.74048,19.91072 9.49154,0.95656 44.98252,-0.5435 58,-2.45144 z"
       id="path4" />
    <path
       style="display:inline;fill:#fff6d5"
       d="m 317.64644,245.4642 c 16.67221,-2.28205 36.48998,-5.3412 44.03948,-6.7981 16.38581,-3.16214 44.33327,-10.90663 50.07686,-13.87676 2.25764,-1.16747 4.90113,-2.12267 5.87444,-2.12267 1.75027,0 11.23469,-4.7066 21.83552,-10.83578 3.01001,-1.74032 8.03599,-5.48131 11.16886,-8.3133 l 5.69611,-5.14908 -0.88441,-8.85092 C 454.67184,181.69691 446.39268,141.25494 444.49734,136 c -0.53471,-1.48251 -2.05196,-0.51239 -5.86387,3.74933 -5.63522,6.30018 -19.20815,15.61805 -26.60071,18.26148 -2.58469,0.92423 -8.19877,3.2387 -12.47576,5.14326 -16.10333,7.17091 -46.52189,13.0527 -91.45052,17.68303 -5.55998,0.57302 -8.09712,1.61507 -11,4.51795 -4.3963,4.39631 -4.79137,9.36794 -1.74648,21.97828 1.06242,4.4 1.94105,12.29667 1.95251,17.54815 0.0196,9.00424 -0.20927,9.74174 -4.01843,12.94694 -2.22158,1.86934 -6.17946,3.80031 -8.79528,4.29104 -5.39427,1.01197 -14.03244,-1.14767 -16.5045,-4.12632 -2.779,-3.3485 -3.20985,-13.06413 -0.78711,-17.74921 2.76026,-5.33775 4.05368,-14.65852 2.89281,-20.84649 -1.12919,-6.0191 -2.84916,-5.13497 -3.7999,1.9533 -0.39952,2.97867 -2.31102,7.49329 -4.24777,10.03251 -4.87129,6.38658 -9.56392,6.24292 -16.66285,-0.51014 -4.89515,-4.65664 -5.38411,-5.72671 -5.33096,-11.66666 0.0322,-3.59688 0.86149,-8.78978 1.84289,-11.53978 l 1.78436,-5 -14.84289,-0.0114 C 202.19791,182.63479 161.575,178.1961 136.2826,172.5416 102.43587,164.97465 76.387627,154.09926 62.920554,141.91226 c -4.435352,-4.01376 -8.361117,-6.81745 -8.723922,-6.23042 -1.060264,1.71555 -8.700301,43.45209 -9.648841,52.71038 -1.153678,11.26055 0.977869,15.134 12.958049,23.54735 9.011364,6.32844 29.509527,15.3657 44.43507,19.59062 27.69253,7.83881 45.45671,11.38947 72.72576,14.53621 49.44969,5.70631 98.39715,5.50016 142.97977,-0.6022 z"
       id="path5" />
    <path
       style="fill:#fff6d5"
       d="m 288.33333,231.0228 c 3.08974,-2.78443 2.96581,-8.41266 -0.55466,-25.19056 -3.18861,-15.19634 -2.5877,-20.56818 3.1113,-27.81328 4.27152,-5.43036 9.21027,-6.95899 34.68656,-10.73607 26.2901,-3.89773 48.3908,-8.86684 55.54078,-12.48777 2.68548,-1.35999 9.67415,-4.38374 15.53037,-6.71945 13.93617,-5.55832 18.31077,-8.32426 28.48928,-18.01297 8.42151,-8.01626 13.52971,-15.72191 13.52971,-20.40936 0,-4.26818 -6.57386,-12.802992 -14.42129,-18.723114 C 387.04338,62.86497 300.96774,45.462099 224.30401,50.505854 165.22547,54.392668 120.72784,65.07681 88.1633,83.194035 70.877905,92.810736 62.666667,101.92888 62.666667,111.5067 c 0,9.20049 13.292254,22.41683 31.999358,31.81659 C 120.5723,156.34041 172.69187,166.71025 222,168.65796 c 16.11409,0.63652 21.82264,1.32303 23.33333,2.80606 2.17648,2.13662 2.51197,11.86784 0.73453,21.30556 -0.80995,4.30061 -0.44053,6.5796 1.76843,10.90953 1.53575,3.01031 3.40621,5.85273 4.15659,6.31649 6.38397,3.94551 10.88475,-10.74472 7.99088,-26.08165 -0.96111,-5.09373 -1.28988,-9.70817 -0.73059,-10.25431 1.44761,-1.41355 10.84965,9.79135 14.76999,17.60215 4.16648,8.30122 4.36459,18.4973 0.5692,29.29586 -1.50753,4.28921 -2.42083,8.63283 -2.02955,9.65249 1.75378,4.57029 11.06827,5.05027 15.77052,0.81266 z"
       id="path6" />
  </g>
  <script>alert("XSS Test");</script>
  <script>alert(document.cookie);</script>
</svg>
